<?xml version="1.0"?>
<svg version="1.1" xmlns="http://www.w3.org/2000/svg" width="200" height="50" style="border: dashed 2px #aaa"><path fill="#133c58" d="M27.516,26.4c0,0.168-0.084,0.308-0.28,0.42l-5.936,3.808l5.852,3.752c0.224,0.14,0.336,0.308,0.336,0.476c0,0.112-0.028,0.196-0.112,0.336l-1.092,1.736c-0.14,0.224-0.308,0.364-0.476,0.364c-0.14,0-0.308-0.084-0.504-0.224l-7.896-5.264c-0.252-0.168-0.392-0.364-0.392-0.756l0-0.728c0-0.364,0.196-0.588,0.476-0.756l8.12-5.236c0.168-0.112,0.336-0.168,0.448-0.168c0.14,0,0.252,0.084,0.364,0.28l0.98,1.652c0.056,0.112,0.112,0.196,0.112,0.308z M40.522,20.66c0,0.112-0.056,0.28-0.112,0.476l-5.796,18.76c-0.14,0.448-0.28,0.56-0.756,0.56l-1.988,0c-0.28,0-0.42-0.084-0.42-0.308c0-0.084,0.028-0.224,0.084-0.364l5.852-18.788c0.168-0.504,0.308-0.616,0.84-0.616l1.82,0c0.308,0,0.476,0.056,0.476,0.28z M55.32,26.932c0,0.084-0.028,0.168-0.056,0.28l-4.9,12.376c-0.168,0.42-0.392,0.532-0.812,0.532l-1.456,0c-0.42,0-0.7-0.112-0.84-0.504l-4.816-12.488c-0.028-0.084-0.056-0.168-0.056-0.252c0-0.224,0.14-0.336,0.504-0.336l2.464,0c0.476,0,0.7,0.196,0.812,0.56l2.128,6.524c0.28,0.84,0.532,1.764,0.7,2.38l0.028,0c0.14-0.532,0.42-1.512,0.672-2.296l2.184-6.58c0.14-0.476,0.364-0.588,0.868-0.588l2.016,0c0.364,0,0.56,0.14,0.56,0.392z M62.838,22.984c0,1.092-0.952,1.764-1.876,1.764s-1.904-0.616-1.904-1.736s0.924-1.792,1.904-1.792c0.952,0,1.876,0.644,1.876,1.764z M62.67,39.42c0,0.504-0.224,0.7-0.7,0.7l-1.96,0c-0.504,0-0.728-0.196-0.728-0.7l0-12.236c0-0.476,0.28-0.644,0.728-0.644l1.96,0c0.448,0,0.7,0.14,0.7,0.644l0,12.236z M80.128,39.196c0,4.536-1.932,7.056-6.636,7.056c-1.372,0-2.8-0.28-4.144-0.868c-0.308-0.14-0.448-0.308-0.448-0.56c0-0.14,0.056-0.252,0.084-0.364l0.392-1.232c0.112-0.308,0.224-0.504,0.42-0.504c0.14,0,0.28,0.056,0.42,0.112c1.008,0.42,2.156,0.728,3.136,0.728c2.8,0,3.388-1.484,3.388-3.724l0-1.12c-0.84,0.812-2.408,1.428-3.64,1.428c-1.736,0-3.136-0.56-4.116-1.596c-1.176-1.204-1.764-3.024-1.764-5.068c0-3.752,2.184-7.28,6.244-7.28c0.672,0,1.372,0.168,2.016,0.448c0.532,0.224,1.092,0.644,1.428,1.12l0.056-0.728c0.028-0.364,0.224-0.504,0.644-0.504l1.848,0c0.504,0,0.672,0.196,0.672,0.672l0,11.984z M76.74,36.06l0-5.768c-0.56-0.756-1.652-1.372-2.716-1.372c-0.868,0-1.568,0.336-2.072,0.812c-0.868,0.84-1.204,2.268-1.204,3.556c0,1.232,0.28,2.548,1.12,3.36c0.504,0.504,1.232,0.756,1.988,0.756c1.092,0,2.324-0.644,2.884-1.344z M97.558,39.56c0,0.42-0.084,0.56-0.448,0.56l-2.464,0c-0.392,0-0.476-0.112-0.476-0.56l0-7.784c0-1.512-0.42-2.632-2.1-2.632c-1.092,0-2.492,0.588-3.36,1.344l0,9.072c0,0.42-0.112,0.56-0.532,0.56l-2.408,0c-0.336,0-0.448-0.14-0.448-0.504l0-18.508c0-0.504,0.224-0.644,0.616-0.7l1.932-0.252c0.112-0.028,0.252-0.028,0.364-0.028c0.308,0,0.476,0.14,0.476,0.532l0,7.028c1.176-0.98,2.94-1.512,4.424-1.512c3.136,0,4.424,1.988,4.424,5.012l0,8.372z M114.932,39.392c0,0.476-0.168,0.728-0.672,0.728l-2.016,0c-0.504,0-0.672-0.252-0.672-0.728l0-7.616c0-1.54-0.42-2.632-2.128-2.632c-1.092,0-2.436,0.588-3.304,1.344l0,8.932c0,0.476-0.196,0.7-0.672,0.7l-2.044,0c-0.42,0-0.672-0.224-0.672-0.672l0-12.208c0-0.448,0.196-0.7,0.7-0.7l1.82,0c0.392,0,0.644,0.112,0.672,0.532l0.028,0.728c1.288-1.036,2.912-1.624,4.536-1.624c3.136,0,4.424,1.96,4.424,5.012l0,8.204z M131.998,33.288c0,0.672-0.224,0.812-0.924,0.812l-8.204,0c0.224,2.156,1.792,3.64,4.004,3.64c1.176,0,2.408-0.28,3.444-0.672c0.112-0.028,0.196-0.084,0.308-0.084c0.196,0,0.336,0.112,0.392,0.336l0.392,1.428c0.028,0.14,0.056,0.252,0.056,0.336c0,0.196-0.112,0.336-0.448,0.476c-1.372,0.616-3.248,0.896-4.704,0.896c-4.396,0-7-2.8-7-7.168c0-4.2,2.772-7.112,6.944-7.112c1.708,0,3.108,0.644,4.088,1.68c1.288,1.344,1.652,3.108,1.652,5.012l0,0.42z M128.666,31.888l0-0.308c-0.056-1.456-0.896-2.8-2.604-2.8c-1.82,0-2.912,1.456-3.136,3.108l5.74,0z M145.256,36.116c0,2.94-2.548,4.34-5.404,4.34c-1.456,0-3.052-0.42-4.312-0.98c-0.252-0.112-0.336-0.28-0.336-0.448c0-0.084,0.028-0.168,0.056-0.252l0.448-1.428c0.084-0.28,0.224-0.392,0.392-0.392c0.084,0,0.168,0,0.308,0.056c1.232,0.504,2.548,0.868,3.528,0.868c1.232,0,2.072-0.56,2.072-1.484c0-0.784-0.532-1.204-1.68-1.652l-2.212-0.84c-1.596-0.588-2.884-1.82-2.884-3.724c0-2.744,2.576-4.004,5.068-4.004c1.344,0,2.66,0.224,4.06,0.84c0.224,0.112,0.336,0.224,0.336,0.392c0,0.084-0.028,0.168-0.056,0.28l-0.476,1.512c-0.056,0.196-0.196,0.308-0.392,0.308c-0.084,0-0.196-0.028-0.28-0.056c-0.924-0.364-2.128-0.672-3.024-0.672c-1.176,0-1.764,0.644-1.764,1.288c0,0.616,0.308,1.008,1.372,1.428l2.52,1.036c1.484,0.616,2.66,1.764,2.66,3.584z M161.622,39.56c0,0.42-0.084,0.56-0.448,0.56l-2.464,0c-0.392,0-0.476-0.112-0.476-0.56l0-7.784c0-1.512-0.42-2.632-2.1-2.632c-1.092,0-2.492,0.588-3.36,1.344l0,9.072c0,0.42-0.112,0.56-0.532,0.56l-2.408,0c-0.336,0-0.448-0.14-0.448-0.504l0-18.508c0-0.504,0.224-0.644,0.616-0.7l1.932-0.252c0.112-0.028,0.252-0.028,0.364-0.028c0.308,0,0.476,0.14,0.476,0.532l0,7.028c1.176-0.98,2.94-1.512,4.424-1.512c3.136,0,4.424,1.988,4.424,5.012l0,8.372z M177.512,31.076c0,0.364-0.224,0.588-0.504,0.756l-8.092,5.236c-0.196,0.112-0.336,0.196-0.448,0.196c-0.14,0-0.28-0.084-0.392-0.28l-0.952-1.652c-0.056-0.112-0.112-0.224-0.112-0.336c0-0.14,0.084-0.308,0.28-0.42l5.908-3.78l-5.824-3.78c-0.224-0.14-0.336-0.28-0.336-0.448c0-0.112,0.028-0.224,0.112-0.336l1.064-1.764c0.14-0.252,0.308-0.364,0.476-0.364c0.14,0,0.308,0.056,0.504,0.196l7.896,5.32c0.252,0.168,0.42,0.336,0.42,0.728l0,0.728z"/><path fill="#" d=""/></svg>
